<?xml version="1.0" encoding="UTF-8"?>
<!-- Generator: Adobe Illustrator 15.0.0, SVG Export Plug-In . SVG Version: 6.00 Build 0)  -->
<!DOCTYPE svg PUBLIC "-//W3C//DTD SVG 1.1//EN" "http://www.w3.org/Graphics/SVG/1.1/DTD/svg11.dtd">
<svg version="1.1" id="Layer_1" xmlns="http://www.w3.org/2000/svg" xmlns:xlink="http://www.w3.org/1999/xlink" x="0px" y="0px"	 width="149.032px" height="173.296px" viewBox="0 0 149.032 173.296" enable-background="new 0 0 149.032 173.296"	 xml:space="preserve">
  <path fill="#EB1767" d="M102.333,91.21H89.115v11.519h13.591c5.049,0,8.092-1.795,8.092-5.682v-0.15	C110.799,93.379,108.201,91.21,102.333,91.21"/>
  <path fill="#EB1767" d="M74.517,0L0,43.325v86.649l74.517,43.322l74.515-43.322V43.325L74.517,0z M68.022,97.344	c0,10.397-7.877,16.23-19.087,16.23c-7.873,0-15.822-2.766-22.062-8.375l6.761-8.155c4.677,3.892,9.583,6.358,15.522,6.358	c4.677,0,7.5-1.869,7.5-4.935v-0.15c0-2.918-1.782-4.411-10.469-6.656c-10.474-2.692-17.23-5.609-17.23-16.007v-0.149	c0-9.501,7.575-15.781,18.19-15.781c7.58,0,14.041,2.392,19.316,6.656l-5.944,8.675c-4.602-3.215-9.133-5.161-13.515-5.161	c-4.384,0-6.685,2.016-6.685,4.561v0.153c0,3.438,2.229,4.56,11.214,6.877c10.545,2.769,16.489,6.582,16.489,15.707V97.344z	 M122.161,98.468c0,9.569-7.719,14.359-19.455,14.359H77.973V60.473h24.141c5.94,0,10.617,1.645,13.589,4.636	c2.375,2.393,3.565,5.312,3.565,8.898v0.152c0,5.907-3.122,9.2-6.835,11.295c6.016,2.317,9.729,5.832,9.729,12.864V98.468z"/>
  <path fill="#EB1767" d="M107.901,76.103v-0.149c0-3.44-2.67-5.386-7.5-5.386H89.115v11.067h10.545	C104.709,81.635,107.901,79.995,107.901,76.103"/>
</svg>
